#!OML:ASF F:\VICON\USERDATA\INSTALL\rory3\rory3.ASF
:FULLY-SPECIFIED
:DEGREES
19
root 0.8463983209532353 17.913098120183992 -4.4010109267884925 -4.044089997249186 -1.0021740842841003 2.3573192000098953
lfemur 0.11127560160140959 -4.089152935823826 -28.40148761916369
ltibia 25.658903321889227
lfoot -17.17998761327571 1.2625045846696077
ltoes 6.189166747311175
rfemur -30.56248762740602 -1.720793302200137 19.07720982771423
rtibia 56.2653907639026
rfoot -10.7770975394865 -9.778443491041122
rtoes -2.3390621649557826
lowerback 11.680485627034026 -0.26079502600388754 -2.241361644886779
upperback 0.545259274620042 -0.597691535183233 0.7494558920769818
thorax -5.953631505418078 -0.22203808735669872 2.1521832881531218
lowerneck -16.137002271674252 -2.751196285078121 -1.509556920721485
upperneck 22.34738792823677 -3.2158094668765704 -0.9678538262856211
head 9.759249739827716 -1.735014829725969 -0.5050681063954411
lclavicle -4.533851499001848e-16 -7.764982017229942e-16
lhumerus -26.301807227461747 0.30617344334105656 81.0390928484179
lradius 26.75899579888305
lwrist 5.63477892746222
lhand -28.14730092774284 16.84630716352252
lfingers 7.12502
lthumb -1.5281309188310903 46.8206069198239
rclavicle -4.533851499001848e-16 -7.764982017229942e-16
rhumerus -30.7354960243083 -23.162293290639198 -77.13480321962425
rradius 24.423504648601945
rwrist 5.42080709630476
rhand -17.70510144704442 24.621290645444187
rfingers 7.12502
rthumb 8.554898534443188 -5.18538948581962
20
root 0.7923675799701786 17.92259743744692 -3.696630600821715 -3.416144067408406 -0.492401785085852 2.7854981293614482
lfemur 3.997251184461147 -3.3273351703560348 -28.620987068471763
ltibia 21.374806168274052
lfoot -17.550987701547925 -0.13040761553764213
ltoes 2.4839722006419875
rfemur -31.21258729300748 -0.5718360480955771 18.460610441635854
rtibia 44.20809692606627
rfoot -8.286160029530228 -10.984991457493614
rtoes -5.40910743056839
lowerback 11.26958914545841 -0.5300272171290894 -3.0926397053280263
upperback 0.5493901712211158 -1.0473826842282472 0.8836971700674892
thorax -5.677745515037932 -0.4234642364766087 2.8401704438569793
lowerneck -16.998687037194852 -2.692578066175283 -1.7603530622154213
upperneck 22.402087290876835 -3.141610780535122 -0.5864645567261155
head 9.952333080018489 -1.6755975392412936 -0.33511802426365755
lclavicle -4.533851309123039e-16 -7.764981973281276e-16
lhumerus -24.08721032453516 -0.531999324310811 80.85319372555888
lradius 28.693091945727634
lwrist 7.747152889899955
lhand -21.590230406679805 46.071850160181725
lfingers 7.12502
lthumb 4.804479488245107 75.99735149480829
rclavicle -4.533851309123039e-16 -7.764981973281276e-16
rhumerus -31.68489451182756 -23.10029319481722 -76.5942044258484
rradius 24.566404276525702
rwrist 5.088287826844767
rhand -17.4904030585007 24.1430924615471
rfingers 7.12502
rthumb 8.762096918555866 -5.6549975984206995
21
root 0.7276108894263803 17.88750462582045 -2.7755269707735852 -2.425121859417437 -0.06952146846207752 3.173579592134052
lfemur 7.356347404806291 -1.9970802758478603 -28.26707286273009
ltibia 17.009657704544402
lfoot -17.338366487468758 -0.47045364402181544
ltoes 1.4853932490579926
rfemur -29.786168724734278 1.882813478204201 17.119711578928754
rtibia 30.22121783779942
rfoot -7.462172053984464 -12.06234577744905
rtoes -3.34328853846542
lowerback 9.924250942231485 -0.7087366321127075 -4.462703314272099
upperback 0.4863157566498785 -1.311099214429423 0.5722075805028255
thorax -5.366019723420937 -0.5278463011257416 2.8839497973066797
lowerneck -16.61327823552108 -2.7215407359840693 -1.762593023894559
upperneck 22.117002983803644 -3.2975605124279297 -0.7653387772762275
head 9.741850451370047 -1.7386912676454118 -0.37400210436769166
lclavicle -4.473186248193157e-16 -7.726639678581437e-16
lhumerus -23.267761473046246 -2.9789685917212996 81.15465768742112
lradius 30.251297017209303
lwrist 7.89897105234631
lhand -28.412228513466005 22.29203638158239
lfingers 7.12502
lthumb -1.7287492737451602 52.697524821718694
rclavicle -4.523689024537759e-16 -7.757088381403017e-16
rhumerus -32.49659837853158 -23.357110372655722 -76.11311041061671
rradius 24.4803211661372
rwrist 4.908607992496002
rhand -17.75690294753347 22.99428730613663
rfingers 7.12502
rthumb 8.53077747163145 -6.897721705403433
22
root 0.651395158159813 17.85133296602398 -2.2479435870103135 -2.0597609611889993 0.9909664078323859 3.56831825867239
lfemur 11.131305455869635 -1.700306189481676 -28.324896603632816
ltibia 12.43939230041553
lfoot -17.221800021142304 -1.510587640752677
ltoes -1.1524786566141374
rfemur -28.214390609338313 5.901817591165183 14.286454769242079
rtibia 18.120921981736874
rfoot -10.415148780469003 -15.06714232337278
rtoes -4.131837269651706
lowerback 9.237875551834081 -1.0396533970042048 -5.248840893092768
upperback 0.3112575931774198 -1.809118689436948 0.5503634872652047
thorax -5.1953450648939254 -0.7679374078089213 3.118391439294556
lowerneck -16.478586889705547 -2.7620189795447603 -1.7976037369746312
upperneck 22.049524940211132 -3.3197640450817754 -0.7064812731520727
head 9.683831447294523 -1.7480314431558162 -0.2898928037905916
lclavicle -4.490008433015778e-16 -7.736801863317091e-16
lhumerus -22.481014300749194 -4.1514815303458885 81.2856336311881
lradius 31.695033787289667
lwrist 8.060058033539283
lhand -27.7649499667032 24.22180273957183
lfingers 7.12502
lthumb -1.3609678380195125 54.114687679721015
rclavicle -4.526455336336437e-16 -7.759227603810582e-16
rhumerus -33.25935904174424 -23.88440185286219 -75.51229234831871
rradius 24.194480991790467
rwrist 5.280452221676479
rhand -17.443528454704385 23.620407858037563
rfingers 7.12502
rthumb 8.860870053812206 -5.907923090797899
